<?xml version="1.0" encoding="UTF-8"?>
<svg id="Layer_2" data-name="Layer 2" xmlns="http://www.w3.org/2000/svg" viewBox="0 0 135.11 167.84">
  <defs>
    <style>
      .cls-1 {
        fill: #77d9c2;
      }

      .cls-1, .cls-2, .cls-3 {
        stroke: #142d4c;
        stroke-miterlimit: 10;
      }

      .cls-2 {
        fill: #f0f0f0;
      }

      .cls-3 {
        fill: #fff;
      }
    </style>
  </defs>
  <g id="Layer_1-2" data-name="Layer 1">
    <g>
      <path class="cls-1" d="M120.13,167.34h-12.93c0-7.99-6.48-14.47-14.47-14.47V14.97c7.99,0,14.47-6.48,14.47-14.47h12.93c0,7.99,6.48,14.47,14.47,14.47v137.89c-7.99,0-14.47,6.48-14.47,14.47Z"/>
      <circle class="cls-3" cx="113.67" cy="11.73" r="5.79"/>
      <g>
        <path class="cls-2" d="M129.18,30.48v125.96c0,4.32-3.5,7.83-7.83,7.83h-16c-.21,0-.42-.01-.62-.03-2.32.05-4.65-.94-6.23-2.89L32.16,79.77v76.67c0,4.32-3.5,7.83-7.83,7.83H8.33c-4.32,0-7.83-3.51-7.83-7.83V30.48c0-4.32,3.51-7.83,7.83-7.83h14.47c2.27,0,4.53.99,6.07,2.89l3.23,3.97,65.42,80.45V30.48c0-4.32,3.51-7.83,7.83-7.83h16c4.33,0,7.83,3.51,7.83,7.83Z"/>
        <path class="cls-2" d="M22.8,22.65c2.27,0,4.53.99,6.07,2.89l3.23,3.97"/>
      </g>
      <line class="cls-1" x1="86.22" y1="91" x2="34.96" y2="26.92"/>
      <line class="cls-1" x1="89.67" y1="96.63" x2="89.67" y2="20.91"/>
    </g>
  </g>
</svg>